<?xml version="1.0" encoding="utf-8"?>
<!-- Generator: Adobe Illustrator 24.0.3, SVG Export Plug-In . SVG Version: 6.00 Build 0)  -->
<svg version="1.1" id="Шар_2_1_" xmlns="http://www.w3.org/2000/svg" xmlns:xlink="http://www.w3.org/1999/xlink" x="0px"
	 y="0px" viewBox="0 100 2225.62 4606.03" style="enable-background:new 0 0 2225.62 4606.03;" xml:space="preserve">
<style type="text/css">
	.st0{fill:#FFFFFF;}
</style>
<g id="Num_3">
	<path d="M1112.1,1874.99c322.13,0,644.26-0.03,966.4,0.02c91.9,0.01,116.44,24.92,116.44,117.77
		c0.01,90.04,0.21,180.09-0.08,270.13c-0.2,63.64-29.48,94-91.91,95.23c-132.48,2.61-261.54,24.45-389.28,60.11
		c-153.34,42.82-260.15,139.09-328.97,278.1c-80.74,163.05-82.8,329.98-18.29,500.74c179.12,474.12,118.49,917.28-179.66,1327.21
		c-43.62,59.97-104.24,59.88-147.93-0.04c-295.91-405.88-359.78-846.66-183.32-1316.39c105.88-281.84,27.21-582.71-221.44-734.9
		c-80.39-49.2-181.51-68.69-275.83-89.73c-78.44-17.5-160.72-18.64-241.48-24.6c-53.83-3.97-83.86-31.93-84.11-86.52
		c-0.47-104-0.48-207.99,0.02-311.99c0.23-49.2,26.64-78.16,75.07-83.71c13.8-1.58,27.84-1.38,41.77-1.38
		C470.38,1874.97,791.24,1874.99,1112.1,1874.99z M1214.5,3935.59c0.52-57.35-41.87-101.31-98.69-102.35
		c-58.86-1.08-105.1,42.31-106.38,99.81c-1.25,56.34,45.72,102.94,103.8,102.98C1169.64,4036.07,1213.99,3992.08,1214.5,3935.59z"/>
	<path d="M266.19,356.29c28.7-89.7,97.31-54.2,150.7-62.23c75.46-11.35,103.36,36.54,118.14,102.58c3.6-1.48,7.2-2.97,10.8-4.45
		c7.55-16.32,15.53-32.46,22.56-49c13.26-31.21,34.79-47.81,70.38-46.63c44.34,1.47,88.88,2.29,133.12-0.24
		c39.15-2.24,71.81,0.93,76.51,51.88c9.18-5.6,17.91-7.82,19.08-12.12c12.65-46.27,48.48-42.1,84.54-42
		c216.87,0.6,433.75,1.64,650.61-0.52c64.97-0.65,124.06,0.32,144.34,82.2c3.01-1.02,6.01-2.04,9.02-3.06
		c7.52-14.59,16.73-28.58,22.18-43.9c8.94-25.09,24.65-37.32,51.52-34.48c5.02,0.53,10.14,0.07,15.21,0.06
		c70.28-0.11,69.95-0.04,85.63,70.06c4.27,19.12,11.21,37.65,16.92,56.45c4.16,0.17,8.33,0.34,12.49,0.52
		c6.16-29.59,14.2-58.95,17.94-88.85c3.6-28.78,18.03-39.25,45.53-38.36c30.41,0.98,60.89-0.43,91.3,0.37
		c50.79,1.34,72.48,25.54,71.91,76.79c-2.28,204.04-5.73,408.07-5.53,612.11c0.09,86.02,8.86,172.01,12.16,258.07
		c1.01,26.31,0.15,53.54-5.49,79.09c-16.17,73.2-70.45,121.4-141.22,129.45c-77.11,8.76-155.03-25.25-180.17-91.54
		c-14.94-39.4-12.5-86.57-12.46-130.24c0.1-100.1-0.49-200.5,7.16-300.16c4.23-55.14-26.2-73.97-71.78-94.04
		c-6.37,10.04-14.59,21.45-21.1,33.76c-5.84,11.05-7.16,25.6-15.21,34.12c-12.08,12.79-28.3,21.67-42.76,32.21
		c-10.68-18.59-25.25-36.01-31.25-56c-12.88-42.92-21.01-87.25-32-130.77c-1.64-6.49-8.25-11.73-19.92-27.5
		c-7.68,24.91-14.83,41.15-17.55,58.11c-12.43,77.53-23.3,155.16-77.88,217.86c-8.68,9.97-16.83,25.08-16.39,37.49
		c2.1,58.28-35.03,98.87-61.01,144.56c-16.19,28.46-32.11,22.35-48.27-0.46c-36.16-51.03-59.18-106.62-54.66-170.17
		c3.15-44.23-9.85-79.12-38.37-114.39c-20.87-25.81-31.7-62.6-38.41-96.22c-6.86-34.36-17.94-60.2-47.8-81.38
		c-17.37-12.31-28.95-36.07-37.38-57c-16.37-40.69-28.68-83.02-44.86-131.18c-43.12,34.86-52.29,80.05-47.2,117.18
		c9.99,72.85-23.51,111.35-81.23,140.37c-33.1,16.64-37.58,45.96-39.86,79.65c-11.19,165.52-22.67,331.07-38.28,496.2
		c-3.96,41.91-21.25,83.23-37.05,122.98c-5.2,13.09-25.22,28.29-38.03,27.92c-10.92-0.32-28.4-20.37-30.69-33.79
		c-19.41-113.55-37.89-227.35-52.53-341.59c-6.02-46.97-22.08-80.63-61.31-110.55c-39.24-29.94-70.88-71.01-101.75-110.41
		c-34.35-43.84-71.59-40.55-98.32,9.45c-46.99,87.89-58.62,182.54-57.4,279.68c1.83,145.71,7.2,291.41,7,437.11
		c-0.06,43.16-8.82,87.97-22.63,128.98c-13.87,41.18-46.82,67.28-94.73,57c-36.42-7.81-71.83-20.26-107.98-29.54
		c-9.43-2.42-20.02-1.52-29.89-0.44c-4.5,0.49-8.26,5.77-12.82,7.82c-74.52,33.48-174.82,37.69-169.26-90.35
		c4.61-106.11,20.33-211.69,27.54-317.75c7.89-116.08,12.78-232.41,16.86-348.71c3.34-94.99,5.53-190.11,4.72-285.15
		c-1.19-138.01-5.32-276.01-8.67-414c-1.21-49.8,2.57-54.4,52.55-54.81c8.88-0.07,17.76,0.19,26.63-0.05
		C198.04,293.05,250.32,282.54,266.19,356.29z M316.58,1749.14c2.33-4.97,4.66-9.93,6.99-14.9c-21.63-12.5-42.18-27.69-65.16-36.8
		c-25.62-10.16-53.69-13.94-80.2-22.12c-23.67-7.3-39.12-22.27-38.55-49.59c1.3-61.93,2.61-123.86,3.03-185.8
		c0.52-76.61,0.12-153.23,0.12-205.44c-13.59,88.52-31.8,200.59-47.56,313c-6.1,43.48-11.45,88.07-8.5,131.58
		c3.67,54.14,27.56,67.77,80.99,65.17c39.82-1.94,79.93,1.77,119.9,3.1C297.31,1747.66,306.94,1748.53,316.58,1749.14z
		 M1897.57,1070.57c-2.35-0.69-4.69-1.38-7.04-2.06c0,81.38-7.45,163.67,2.23,243.88c8.59,71.17,118.13,101.68,172.02,51.31
		c-22.7-7.87-43.42-17.45-65.2-22.13c-59.74-12.83-86.06-49.33-88.26-109.44C1909.34,1178.19,1902.35,1124.42,1897.57,1070.57z"/>
</g>
</svg>
